<svg width="190" height="39" viewBox="0 0 190 39" fill="none" xmlns="http://www.w3.org/2000/svg">
<path d="M42.7344 20.4375C42.7344 17.2917 42.7812 14.875 42.875 13.1875H42.8594L40.625 12.8594C40.4896 12.474 40.3854 12.0469 40.3125 11.5781C40.2396 11.1094 40.2031 10.6562 40.2031 10.2188C40.2031 9.88542 40.2292 9.52083 40.2812 9.125C41.5625 8.66667 43.3281 8.32812 45.5781 8.10938C47.8281 7.89062 49.9948 7.78125 52.0781 7.78125C53.6719 7.78125 55.0417 7.90625 56.1875 8.15625C57.3333 8.40625 58.2917 8.97396 59.0625 9.85938C59.8438 10.7344 60.2344 12.0469 60.2344 13.7969C60.2344 14.6719 60.0469 15.6927 59.6719 16.8594C59.3073 18.0156 58.8385 19.1458 58.2656 20.25C57.7031 21.3438 57.1354 22.2292 56.5625 22.9062C55.7188 23.9167 54.7812 24.5104 53.75 24.6875C52.0417 24.9583 50.2344 25.0938 48.3281 25.0938C48.2865 26.1667 48.2708 26.9375 48.2812 27.4062L50.6094 27.25C51.0885 28.0312 51.3542 28.9583 51.4062 30.0312C51.4062 30.0833 51.1719 30.3073 50.7031 30.7031C50.2344 31.099 49.6146 31.4635 48.8438 31.7969C48.0833 32.1302 47.2083 32.2969 46.2188 32.2969C45.2396 32.2969 44.4583 32.0312 43.875 31.5C43.3021 30.9583 43.0156 30.026 43.0156 28.7031C42.8385 26.5365 42.75 23.7865 42.75 20.4531L42.7344 20.4375ZM52.625 20.7031C52.8958 19.5573 53.1198 18.3438 53.2969 17.0625C53.4844 15.7708 53.5885 14.6458 53.6094 13.6875C53.5573 13.5938 53.2917 13.5104 52.8125 13.4375C52.3333 13.3646 51.7135 13.3281 50.9531 13.3281C50.4219 13.3281 49.7604 13.349 48.9688 13.3906C48.875 16.5365 48.75 19.0625 48.5938 20.9688L52.625 20.7031ZM61.3594 22.9219C61.3594 21.1198 61.6615 19.5104 62.2656 18.0938C62.8698 16.6771 63.8021 15.5573 65.0625 14.7344C66.3333 13.901 67.9167 13.4844 69.8125 13.4844C70.8021 13.4844 71.7917 13.6042 72.7812 13.8438C73.7708 14.0729 74.6094 14.4583 75.2969 15C75.9323 15.5104 76.3906 16.1875 76.6719 17.0312C76.9635 17.8646 77.1094 18.7917 77.1094 19.8125C77.1094 20.4896 77.0521 21.1823 76.9375 21.8906C76.8125 22.099 76.5677 22.375 76.2031 22.7188C75.8385 23.0521 75.4115 23.3802 74.9219 23.7031C74.4323 24.026 73.9583 24.276 73.5 24.4531C73.0625 24.4844 72.6094 24.5 72.1406 24.5C71.3177 24.5 70.4844 24.4635 69.6406 24.3906C68.7969 24.3177 68.0573 24.2344 67.4219 24.1406C67.5052 25.026 67.776 25.7969 68.2344 26.4531C68.6927 27.1094 69.4219 27.4375 70.4219 27.4375C70.5156 27.4375 70.6667 27.4271 70.875 27.4062C71.5104 27.3438 72.25 27.1771 73.0938 26.9062C73.9479 26.625 74.7969 26.3021 75.6406 25.9375C76.0365 26.3333 76.3281 26.7292 76.5156 27.125C76.7031 27.5208 76.8333 28.0885 76.9062 28.8281C76.5833 29.2031 76.0573 29.6615 75.3281 30.2031C74.6094 30.7448 73.7292 31.2344 72.6875 31.6719C71.6458 32.099 70.5573 32.3125 69.4219 32.3125C67.7135 32.3125 66.25 31.901 65.0312 31.0781C63.8229 30.2448 62.9062 29.1198 62.2812 27.7031C61.6667 26.276 61.3594 24.6823 61.3594 22.9219ZM71.4219 19.3281C71.276 19.1719 71.0312 19.0521 70.6875 18.9688C70.3438 18.875 69.9844 18.8281 69.6094 18.8281C69.3073 18.8281 69 18.8542 68.6875 18.9062C68.3854 18.9583 68.2031 19.0156 68.1406 19.0781C67.7865 19.776 67.5625 20.5677 67.4688 21.4531L71.6406 21.0469L71.4219 19.3281ZM80.4531 23.375C80.4531 21.6771 80.4792 20.1302 80.5312 18.7344L78.8281 18.4375C78.6927 17.9167 78.599 17.4583 78.5469 17.0625C78.4948 16.6667 78.4688 16.2448 78.4688 15.7969L78.5 15.4844C78.5312 15.3385 78.5469 15.2188 78.5469 15.125L80.8125 14.625C80.8646 13.9792 80.9844 13.25 81.1719 12.4375C81.3594 11.625 81.5573 11.026 81.7656 10.6406C82.099 10.3906 82.5 10.2031 82.9688 10.0781C83.4375 9.95312 83.9427 9.89062 84.4844 9.89062C84.9427 9.89062 85.3854 9.9375 85.8125 10.0312C86.25 10.1146 86.6302 10.2292 86.9531 10.375C86.9844 10.7292 87 11.1354 87 11.5938C87 12.3438 86.9635 13.1927 86.8906 14.1406L89.6406 13.6406C90.026 14.3073 90.2188 15.0312 90.2188 15.8125C90.2188 16.3542 90.151 16.8438 90.0156 17.2812C89.8906 17.7188 89.7135 18.2135 89.4844 18.7656C88.7969 18.8802 87.8542 18.9531 86.6562 18.9844C86.5104 20.6823 86.1875 23.1771 85.6875 26.4688L85.6094 27L85.6406 27.0312L89.3125 25.8906C90.0729 26.526 90.5365 27.5052 90.7031 28.8281C90.7031 28.901 90.3646 29.2448 89.6875 29.8594C89.0208 30.4635 88.1823 31.026 87.1719 31.5469C86.1615 32.0573 85.0625 32.3125 83.875 32.3125C81.8021 32.3125 80.6979 31.0469 80.5625 28.5156C80.4896 27.2344 80.4531 25.5208 80.4531 23.375Z" fill="#FEFEE3"/>
<path d="M93.2656 26.4844C94.1823 26.849 94.9167 27.1302 95.4688 27.3281C96.0208 27.526 96.625 27.6979 97.2812 27.8438C97.9479 27.9896 98.6094 28.0625 99.2656 28.0625C99.5573 28.0625 99.7656 28.0365 99.8906 27.9844C99.9219 27.9427 99.9479 27.8802 99.9688 27.7969C100 27.7031 100.016 27.6094 100.016 27.5156C100.016 27.3073 99.8958 27.1354 99.6562 27C99.2812 26.7917 98.6146 26.4635 97.6562 26.0156C96.3438 25.3906 95.3021 24.8333 94.5312 24.3438C93.7708 23.8542 93.125 23.2031 92.5938 22.3906C92.0729 21.5781 91.8125 20.5573 91.8125 19.3281C91.8125 17.5677 92.3385 16.1562 93.3906 15.0938C94.4427 14.0208 96.1094 13.4844 98.3906 13.4844C101.109 13.4844 103.224 13.8385 104.734 14.5469C104.807 14.849 104.844 15.2292 104.844 15.6875C104.844 16.5625 104.708 17.4583 104.438 18.375C104.167 19.2812 103.812 19.9531 103.375 20.3906C102.781 20.1927 101.943 19.875 100.859 19.4375C100.068 19.125 99.4375 18.8854 98.9688 18.7188C98.5104 18.5417 98.0885 18.4167 97.7031 18.3438C97.4948 18.3958 97.3281 18.5208 97.2031 18.7188C97.0781 18.9062 97.0156 19.1302 97.0156 19.3906C97.0156 19.6198 97.0833 19.8125 97.2188 19.9688C97.3542 20.125 97.5052 20.25 97.6719 20.3438C97.849 20.4271 98.099 20.5417 98.4219 20.6875C98.5885 20.7604 98.7448 20.8281 98.8906 20.8906C99.0365 20.9427 99.1719 20.9948 99.2969 21.0469C100.109 21.3906 100.75 21.6719 101.219 21.8906C101.688 22.1094 102.141 22.3698 102.578 22.6719C103.38 23.224 104.01 23.8542 104.469 24.5625C104.927 25.2708 105.156 26.0469 105.156 26.8906C105.156 28.0573 104.823 29.0677 104.156 29.9219C103.5 30.7656 102.656 31.3802 101.625 31.7656C101.083 31.9635 100.49 32.1042 99.8438 32.1875C99.2083 32.2812 98.4635 32.3281 97.6094 32.3281C96.599 32.3281 95.5573 32.1354 94.4844 31.75C93.4219 31.3542 92.6094 30.6979 92.0469 29.7812C92.0573 29.1458 92.1406 28.5938 92.2969 28.125C92.4635 27.6458 92.7865 27.099 93.2656 26.4844ZM107.844 21.8438C107.844 17.0104 107.938 13.6875 108.125 11.875L106.359 11.5625C106.109 10.6042 105.984 9.57292 105.984 8.46875C106.141 8.27083 106.432 8.02604 106.859 7.73438C107.286 7.44271 107.781 7.1875 108.344 6.96875C108.917 6.75 109.484 6.64062 110.047 6.64062C111.328 6.64062 112.281 6.96875 112.906 7.625C113.531 8.28125 113.844 9.28646 113.844 10.6406C113.844 11.2344 113.792 12.1927 113.688 13.5156C113.583 14.8281 113.432 16.2396 113.234 17.75C113.036 19.25 112.807 20.5885 112.547 21.7656C112.547 21.8281 112.583 21.8854 112.656 21.9375C112.729 21.9896 112.807 22.0156 112.891 22.0156C112.984 22.0156 113.047 21.9792 113.078 21.9062C113.495 20.25 113.911 18.8646 114.328 17.75C114.745 16.6354 115.375 15.6458 116.219 14.7812C117.062 13.9167 118.156 13.4844 119.5 13.4844C121.167 13.4844 122.365 13.9948 123.094 15.0156C123.823 16.026 124.188 17.3021 124.188 18.8438C124.188 20.2188 124.026 21.5469 123.703 22.8281C123.38 24.099 122.979 25.4271 122.5 26.8125C122.521 26.7604 122.448 26.9635 122.281 27.4219L122.312 27.4531L124.625 26.4844C125.438 27.1823 125.911 28.1094 126.047 29.2656C126.047 29.3385 125.812 29.6406 125.344 30.1719C124.875 30.6927 124.255 31.1823 123.484 31.6406C122.724 32.0885 121.849 32.3125 120.859 32.3125C119.87 32.3125 119.062 32.0469 118.438 31.5156C117.812 30.9844 117.5 30.0781 117.5 28.7969C117.5 27.776 117.542 26.4115 117.625 24.7031C117.708 22.9948 117.792 21.6198 117.875 20.5781C117.604 20.2865 117.271 20.1302 116.875 20.1094C116.51 20.5781 115.974 21.5156 115.266 22.9219C114.557 24.3281 114.057 25.3802 113.766 26.0781C113.745 26.224 113.734 26.3646 113.734 26.5C113.734 27.0208 113.812 27.724 113.969 28.6094C114.125 29.4844 114.318 30.3021 114.547 31.0625C114.359 31.4167 113.974 31.7135 113.391 31.9531C112.807 32.1927 112.089 32.3125 111.234 32.3125C110.464 32.3125 109.844 32.25 109.375 32.125C108.917 32 108.594 31.8698 108.406 31.7344C108.219 31.5885 108.125 31.5 108.125 31.4688C108.115 31.375 108.089 31.1302 108.047 30.7344C108.005 30.3281 107.964 29.7656 107.922 29.0469C107.88 28.3177 107.859 27.4896 107.859 26.5625L107.844 21.8438ZM127.203 22.7656C127.203 20.8802 127.505 19.2448 128.109 17.8594C128.714 16.474 129.641 15.401 130.891 14.6406C132.141 13.8698 133.708 13.4844 135.594 13.4844C137.677 13.4844 139.312 13.875 140.5 14.6562C141.688 15.4271 142.516 16.5 142.984 17.875C143.464 19.25 143.703 20.9323 143.703 22.9219C143.703 24.724 143.385 26.3333 142.75 27.75C142.125 29.1562 141.177 30.2708 139.906 31.0938C138.646 31.9062 137.099 32.3125 135.266 32.3125C132.432 32.3125 130.38 31.4427 129.109 29.7031C127.839 27.9531 127.203 25.6406 127.203 22.7656ZM135.906 27.7344C136.438 27.7344 136.76 27.6927 136.875 27.6094C137.115 27.1927 137.297 26.6042 137.422 25.8438C137.547 25.0833 137.609 24.2604 137.609 23.375C137.609 22.5625 137.557 21.8021 137.453 21.0938C137.349 20.375 137.203 19.8125 137.016 19.4062C136.901 19.2708 136.672 19.1719 136.328 19.1094C135.984 19.0365 135.609 19 135.203 19C134.672 19 134.307 19.0573 134.109 19.1719C133.589 20.0677 133.328 21.3125 133.328 22.9062C133.328 23.6562 133.385 24.4219 133.5 25.2031C133.615 25.9844 133.76 26.6927 133.938 27.3281C134.062 27.4635 134.318 27.5677 134.703 27.6406C135.089 27.7031 135.49 27.7344 135.906 27.7344ZM145.516 18.5938C145.297 17.9167 145.151 17.3125 145.078 16.7812C145.016 16.25 144.984 15.5625 144.984 14.7188C145.151 14.5729 145.422 14.4062 145.797 14.2188C146.172 14.0208 146.62 13.849 147.141 13.7031C147.661 13.5573 148.198 13.4844 148.75 13.4844C150.01 13.4844 150.901 13.7552 151.422 14.2969C151.953 14.8385 152.219 15.651 152.219 16.7344C152.219 17.3385 152.13 18.1562 151.953 19.1875C151.661 20.8438 151.516 21.7135 151.516 21.7969C151.516 21.849 151.552 21.901 151.625 21.9531C151.698 21.9948 151.776 22.0156 151.859 22.0156C151.953 22.0156 152.016 21.9792 152.047 21.9062L152.203 21.2812L152.547 19.9531C153.057 18.026 153.818 16.4688 154.828 15.2812C155.839 14.0833 157.109 13.4844 158.641 13.4844C159.786 13.4844 160.719 13.7344 161.438 14.2344C162.167 14.724 162.693 15.375 163.016 16.1875C163.339 16.9896 163.5 17.875 163.5 18.8438C163.5 20.1562 163.375 21.6302 163.125 23.2656C162.875 24.8906 162.542 26.4115 162.125 27.8281C161.719 29.2135 161.042 30.3125 160.094 31.125C159.156 31.9271 157.984 32.3281 156.578 32.3281C156.068 32.3281 155.469 32.2448 154.781 32.0781C154.104 31.9219 153.245 31.6458 152.203 31.25L151.578 34.2031L151.609 34.2344L154.594 34.0312C154.792 34.3125 154.938 34.651 155.031 35.0469C155.135 35.4531 155.224 35.9167 155.297 36.4375L155.344 36.75C155.344 36.7917 155.115 36.9844 154.656 37.3281C154.198 37.6823 153.589 38.0052 152.828 38.2969C152.068 38.599 151.193 38.75 150.203 38.75C147.964 38.75 146.844 37.5573 146.844 35.1719V34.0938C146.844 30.9167 146.865 28.0885 146.906 25.6094C146.958 23.1198 147.062 20.875 147.219 18.875L145.516 18.5938ZM156.516 28.1562C156.891 26.75 157.078 24.6198 157.078 21.7656C157.078 21.276 157.052 20.8802 157 20.5781C156.76 20.276 156.417 20.125 155.969 20.125C155.823 20.25 155.323 21.0729 154.469 22.5938C153.615 24.1042 152.984 25.2656 152.578 26.0781V26.8281C153.151 27.224 153.812 27.5521 154.562 27.8125C155.312 28.0625 155.885 28.1875 156.281 28.1875C156.375 28.1875 156.453 28.1771 156.516 28.1562Z" fill="black"/>
<path d="M31.3185 26.4421C30.2675 20.1535 24.2283 15.0408 17.8507 15.0408C10.9208 15.0408 4.82827 20.6523 4.24039 27.5644C4.0088 30.2366 4.8639 32.7662 6.62754 34.6724C8.37337 36.5785 10.8318 37.6296 13.504 37.6296H21.8412C24.8519 37.6296 27.4884 36.4538 29.2877 34.3339C31.087 32.214 31.7995 29.3993 31.3185 26.4421Z" fill="black"/>
<path d="M15.6405 12.4393C18.5232 12.4393 20.8601 10.1024 20.8601 7.21966C20.8601 4.33693 18.5232 2 15.6405 2C12.7577 2 10.4208 4.33693 10.4208 7.21966C10.4208 10.1024 12.7577 12.4393 15.6405 12.4393Z" fill="black"/>
<path d="M27.5056 14.5209C29.9063 14.5209 31.8524 12.5748 31.8524 10.1742C31.8524 7.77352 29.9063 5.82742 27.5056 5.82742C25.105 5.82742 23.1589 7.77352 23.1589 10.1742C23.1589 12.5748 25.105 14.5209 27.5056 14.5209Z" fill="black"/>
<path d="M33.936 21.4736C35.8546 21.4736 37.4098 19.9182 37.4098 17.9996C37.4098 16.0811 35.8546 14.5258 33.936 14.5258C32.0175 14.5258 30.4622 16.0811 30.4622 17.9996C30.4622 19.9182 32.0175 21.4736 33.936 21.4736Z" fill="black"/>
<path d="M4.34675 18.0004C6.74738 18.0004 8.6935 16.0542 8.6935 13.6535C8.6935 11.2529 6.74738 9.30679 4.34675 9.30679C1.94611 9.30679 0 11.2529 0 13.6535C0 16.0542 1.94611 18.0004 4.34675 18.0004Z" fill="black"/>
</svg>
